# xmcd CD database file
#
# Track frame offsets:
#	182
#	3622
#	22370
#	25402
#	37690
#	40492
#	52542
#	54397
#	67135
#	70320
#	83825
#	88015
#
# Disc length: 1421 seconds
#
# Revision: 0
# Processed by: cddbd v1.4PL0 Copyright (c) Steve Scherf et al.
# Submitted via: CDex 1.50beta10
#
DISCID=9b058b0c
DTITLE=Holly Dunn - Milestones - Limited Edition - Disk 2
DYEAR=1991
DGENRE=Country
TTITLE0=Holly Talks About "A Face In The Crowd"
TTITLE1=A Face In The Crowd (With Michael Martin Murphey)
TTITLE2=Holly Talks About "There Goes My Heart Again"
TTITLE3=There Goes My Heart Again
TTITLE4=Holly Talks About "Are You Ever Gonna Love Me"
TTITLE5=Are You Ever Gonna Love Me
TTITLE6=Holly Talks About "You Really Had Me Going"
TTITLE7=You Really Had Me Going
TTITLE8=Holly Talks About "Maybe I Mean Yes"
TTITLE9=Maybe I Mean Yes
TTITLE10=Holly Talks About "No One Takes The Train Anymore"
TTITLE11=No One Takes The Train Anymore
EXTD=YEAR: 1991
EXTT0=
EXTT1=
EXTT2=
EXTT3=
EXTT4=
EXTT5=
EXTT6=
EXTT7=
EXTT8=
EXTT9=
EXTT10=
EXTT11=
PLAYORDER=
